<?xml version="1.0" encoding="utf-8"?>
<!DOCTYPE svg PUBLIC "-//W3C//DTD SVG 1.1//EN" "http://www.w3.org/Graphics/SVG/1.1/DTD/svg11.dtd">
<svg version="1.1" id="Layer_1" xmlns="http://www.w3.org/2000/svg" xmlns:xlink="http://www.w3.org/1999/xlink" x="0px" y="0px"
	 width="40px" height="40px" viewBox="0 0 40 40" enable-background="new 0 0 40 40" xml:space="preserve">
<g id="Layer_1_1_">
	<g id="g3668">
		<g id="path2831-1" opacity="0.5397" enable-background="new    ">
			<path fill="none" stroke="#3A393B" stroke-width="0.3489" d="M34.02,34.137L6.155,34.135c-0.171-0.02-0.132-0.104-0.093-0.188
				L20.031,6.044c0.05-0.082,0.098-0.069,0.141-0.006l13.969,27.901C34.213,34.082,34.165,34.145,34.02,34.137z"/>
		</g>
		
			<linearGradient id="path2828_1_" gradientUnits="userSpaceOnUse" x1="-2090.3301" y1="781.6514" x2="-2083.4888" y2="767.1794" gradientTransform="matrix(1 0 0 1 2104.0801 -754.6914)">
			<stop  offset="0" style="stop-color:#1011A1"/>
			<stop  offset="1" style="stop-color:#6969E1"/>
		</linearGradient>
		<path id="path2828" fill="url(#path2828_1_)" stroke="#000000" stroke-width="0.0155" d="M21.177,20.873L5.91,33.923l13.985-27.94
			L21.177,20.873z"/>
		
			<linearGradient id="rect3781_1_" gradientUnits="userSpaceOnUse" x1="-1853.1235" y1="914.7676" x2="-1842.5408" y2="914.7334" gradientTransform="matrix(1.9189 0.9835 -0.4561 0.8899 3986.104 1028.4261)">
			<stop  offset="0" style="stop-color:#CBCAF2"/>
			<stop  offset="0.0264" style="stop-color:#5555D2;stop-opacity:0"/>
			<stop  offset="1" style="stop-color:#FFFFFF;stop-opacity:0"/>
		</linearGradient>
		<path id="rect3781" fill="url(#rect3781_1_)" d="M19.896,6.006c0.207,1.252,0.184,1.47-0.28,2.171L7.263,32.663L5.95,33.857
			L19.896,6.006z"/>
		
			<linearGradient id="rect3781-0-9_1_" gradientUnits="userSpaceOnUse" x1="-1530.604" y1="643.4873" x2="-1520.1786" y2="643.4729" gradientTransform="matrix(-2.151 -0.0703 -0.0382 -0.4821 -3247.2043 216.3114)">
			<stop  offset="0" style="stop-color:#321E1D"/>
			<stop  offset="0.0201" style="stop-color:#5A5BD7;stop-opacity:0"/>
			<stop  offset="1" style="stop-color:#FFFFFF;stop-opacity:0"/>
		</linearGradient>
		<path id="rect3781-0-9" fill="url(#rect3781-0-9_1_)" d="M21.236,20.854l-0.776,0.621L19.642,7.693
			c-0.063-0.734-0.098-0.669-0.103-1.056l0.39-0.76L21.236,20.854z"/>
		
			<linearGradient id="path2828-4_1_" gradientUnits="userSpaceOnUse" x1="-2083.9448" y1="770.9121" x2="-2074.384" y2="787.0514" gradientTransform="matrix(1 0 0 1 2104.0801 -754.6914)">
			<stop  offset="0" style="stop-color:#B40E0E"/>
			<stop  offset="1" style="stop-color:#FF5959"/>
		</linearGradient>
		<path id="path2828-4" fill="url(#path2828-4_1_)" stroke="#000000" stroke-width="0.0155" d="M21.887,29.021L19.9,5.979l14,27.946
			L21.887,29.021z"/>
		
			<linearGradient id="rect3781-9_1_" gradientUnits="userSpaceOnUse" x1="-1965.6953" y1="994.4775" x2="-1955.0898" y2="994.4451" gradientTransform="matrix(3.1363 0.0026 0.0643 0.7602 6121.8525 -733.13)">
			<stop  offset="0" style="stop-color:#F6B1B2"/>
			<stop  offset="0.0282" style="stop-color:#C51F1F;stop-opacity:0"/>
			<stop  offset="1" style="stop-color:#FFFFFF;stop-opacity:0"/>
		</linearGradient>
		<path id="rect3781-9" fill="url(#rect3781-9_1_)" d="M19.9,5.92c0.375,0.466,0.612,1.177,0.759,1.739l2.782,21.942l-1.527-0.595
			L19.9,5.92L19.9,5.92z"/>
		
			<linearGradient id="path2828-1_1_" gradientUnits="userSpaceOnUse" x1="-2078.4209" y1="786.0029" x2="-2091.9292" y2="784.8626" gradientTransform="matrix(1 0 0 1 2104.0801 -754.6914)">
			<stop  offset="0" style="stop-color:#01A300"/>
			<stop  offset="1" style="stop-color:#01DF00"/>
		</linearGradient>
		<path id="path2828-1" fill="url(#path2828-1_1_)" stroke="#000000" stroke-width="0.0155" d="M14.977,26.137l18.94,7.784
			L5.914,33.92L14.977,26.137z"/>
		
			<linearGradient id="rect3781-0_1_" gradientUnits="userSpaceOnUse" x1="-1444.085" y1="1678.3779" x2="-1433.4583" y2="1678.2802" gradientTransform="matrix(-1.9407 0.9397 -0.4358 -0.9 -2044.2306 2887.4868)">
			<stop  offset="0" style="stop-color:#321E1D"/>
			<stop  offset="0.0201" style="stop-color:#555548;stop-opacity:0"/>
			<stop  offset="1" style="stop-color:#FFFFFF;stop-opacity:0"/>
		</linearGradient>
		<path id="rect3781-0" fill="url(#rect3781-0_1_)" d="M33.898,33.93l-0.879-0.381L20.678,8.693
			c-0.342-0.379-0.533-0.615-0.641-0.805C20.02,7.385,19.992,6.94,19.884,5.93L33.898,33.93L33.898,33.93z"/>
		
			<linearGradient id="path2828-4-7_1_" gradientUnits="userSpaceOnUse" x1="-2085.5615" y1="782.3945" x2="-2085.7371" y2="776.5153" gradientTransform="matrix(1 0 0 1 2104.0801 -754.6914)">
			<stop  offset="0" style="stop-color:#848484"/>
			<stop  offset="1" style="stop-color:#D2D2D2"/>
		</linearGradient>
		<path id="path2828-4-7" fill="url(#path2828-4-7_1_)" stroke="#000000" stroke-width="0.062" d="M15.005,26.156l6.162-5.26
			l0.858,8.121L15.005,26.156L15.005,26.156z"/>
		
			<linearGradient id="rect3781-8_1_" gradientUnits="userSpaceOnUse" x1="-2064.4604" y1="-160.6855" x2="-2053.8633" y2="-160.7514" gradientTransform="matrix(1.383 1.6543 -0.7672 0.6414 2742.4734 3548.3157)">
			<stop  offset="0" style="stop-color:#CBF595"/>
			<stop  offset="0.0183" style="stop-color:#01DA00;stop-opacity:0"/>
			<stop  offset="1" style="stop-color:#FFFFFF;stop-opacity:0"/>
		</linearGradient>
		<path id="rect3781-8" fill="url(#rect3781-8_1_)" d="M14.966,26.174c0.271,0.104,0.324,0.129,0.555,0.225
			c-0.25,0.213-1.083,1.34-1.417,1.608L7.46,33.631l-1.533,0.286L14.966,26.174L14.966,26.174z"/>
		
			<linearGradient id="rect3781-0-8-6_1_" gradientUnits="userSpaceOnUse" x1="-2011.0762" y1="2496.0986" x2="-2000.5175" y2="2496.0645" gradientTransform="matrix(-0.8318 1.9893 -0.8331 -0.3503 430.9998 4905.0508)">
			<stop  offset="0" style="stop-color:#32691D"/>
			<stop  offset="0.0201" style="stop-color:#01D200;stop-opacity:0"/>
			<stop  offset="1" style="stop-color:#FFFFFF;stop-opacity:0"/>
		</linearGradient>
		<path id="rect3781-0-8-6" fill="url(#rect3781-0-8-6_1_)" d="M33.887,33.913l-1.058-0.015l-18.217-7.439l0.365-0.289l7.3,2.977
			L33.887,33.913L33.887,33.913z"/>
		
			<linearGradient id="rect3781-0-8_1_" gradientUnits="userSpaceOnUse" x1="-1290.1641" y1="531.502" x2="-1279.5956" y2="531.4335" gradientTransform="matrix(0.027 -2.1561 0.9037 0.0131 -425.5683 -2754.7231)">
			<stop  offset="0" style="stop-color:#321E1D"/>
			<stop  offset="0.0201" style="stop-color:#555548;stop-opacity:0"/>
			<stop  offset="1" style="stop-color:#FFFFFF;stop-opacity:0"/>
		</linearGradient>
		<path id="rect3781-0-8" fill="url(#rect3781-0-8_1_)" d="M5.93,33.913l0.78-0.665l25.478,0.003l1.711,0.662H5.93L5.93,33.913z"/>
		
			<linearGradient id="rect3781-0-7_1_" gradientUnits="userSpaceOnUse" x1="-1581.1709" y1="-788.4141" x2="-1570.4586" y2="-788.493" gradientTransform="matrix(0.8531 -1.9803 0.9184 0.3957 2100.8489 -2787.7151)">
			<stop  offset="0" style="stop-color:#321E1D"/>
			<stop  offset="0.0174" style="stop-color:#555548;stop-opacity:0"/>
			<stop  offset="1" style="stop-color:#FFFFFF;stop-opacity:0"/>
		</linearGradient>
		<path id="rect3781-0-7" fill="url(#rect3781-0-7_1_)" d="M22.057,29.037l-0.035-0.346l9.469,3.646
			c0.611,0.293,1.07,0.422,1.377,0.674c0.195,0.078,0.537,0.195,0.713,0.254c0.217,0.144,0.182,0.371,0.316,0.646L22.057,29.037
			L22.057,29.037z"/>
		<path id="path2831" fill="none" stroke="#000000" stroke-width="0.1892" d="M33.82,34.014L5.954,34.01
			c-0.171-0.02-0.132-0.104-0.093-0.188L19.83,5.919c0.051-0.082,0.098-0.069,0.14-0.007l13.969,27.9
			C34.009,33.957,33.964,34.018,33.82,34.014L33.82,34.014z"/>
		
			<linearGradient id="rect3781-0-98_1_" gradientUnits="userSpaceOnUse" x1="-1523.6421" y1="1857.9932" x2="-1513.0952" y2="1857.9482" gradientTransform="matrix(-1.3798 -1.657 0.7684 -0.6399 -3516.3308 -1308.4279)">
			<stop  offset="0" style="stop-color:#321E1D"/>
			<stop  offset="0.0155" style="stop-color:#555548;stop-opacity:0"/>
			<stop  offset="1" style="stop-color:#FFFFFF;stop-opacity:0"/>
		</linearGradient>
		<path id="rect3781-0-98" fill="url(#rect3781-0-98_1_)" d="M5.931,33.893l0.396-0.843l0.807-0.6l13.944-12.108
			c0.076,0.287,0.029,0.108,0.097,0.527L5.931,33.893L5.931,33.893z"/>
		
			<linearGradient id="rect3781-8-2_1_" gradientUnits="userSpaceOnUse" x1="-2064.1714" y1="352.3008" x2="-2058.3496" y2="352.2866" gradientTransform="matrix(1.383 1.6543 -0.7672 0.6414 3143.1697 3212.3811)">
			<stop  offset="0" style="stop-color:#EBEBEC"/>
			<stop  offset="0.0052" style="stop-color:#D3D3D3;stop-opacity:0"/>
			<stop  offset="1" style="stop-color:#FFFFFF;stop-opacity:0"/>
		</linearGradient>
		<path id="rect3781-8-2" fill="url(#rect3781-8-2_1_)" d="M21.143,20.971c-0.121,1.34-0.274,1.262-0.826,1.826l-4.084,3.797
			l-1.162-0.455L21.143,20.971z"/>
	</g>
</g>
<g id="Layer_2">
	<text transform="matrix(1 0 0 1 7.2188 12.3447)" fill="#408DB3" font-family="'ArialMT'" font-size="10">Quick</text>
	<text transform="matrix(1 0 0 1 8.8887 24.3457)" fill="#408DB3" font-family="'ArialMT'" font-size="10">DOC</text>
</g>
</svg>
